<?xml version="1.0" standalone="no"?><!DOCTYPE svg PUBLIC "-//W3C//DTD SVG 1.1//EN" "http://www.w3.org/Graphics/SVG/1.1/DTD/svg11.dtd"><svg t="1752138658935" class="icon" viewBox="0 0 1024 1024" version="1.1" xmlns="http://www.w3.org/2000/svg" p-id="5331" xmlns:xlink="http://www.w3.org/1999/xlink" width="200" height="200"><path d="M512 102.38976c-226.2016 0-409.6 183.3984-409.6 409.6v341.3504a68.29056 68.29056 0 0 0 68.27008 68.27008h68.25984A68.2496 68.2496 0 0 0 307.2 853.34016V648.51968a68.25984 68.25984 0 0 0-68.27008-68.25984h-68.25984v-68.27008c0-188.49792 152.832-341.32992 341.32992-341.32992s341.32992 152.832 341.32992 341.32992v68.27008h-68.25984A68.25984 68.25984 0 0 0 716.8 648.51968v204.82048a68.2496 68.2496 0 0 0 68.27008 68.27008h68.25984A68.29056 68.29056 0 0 0 921.6 853.34016V511.98976c0-226.2016-183.3984-409.6-409.6-409.6zM238.92992 648.51968v204.82048h-68.25984V648.51968h68.25984z m614.4 204.82048h-68.25984V648.51968h68.25984v204.82048z" p-id="5332" fill="#bfbfbf"></path><path d="M306.87232 306.8416l48.26112 48.27136c86.67136-86.67136 227.10272-86.65088 313.77408 0l48.27136-48.27136c-113.3056-113.3056-297.0112-113.33632-410.30656 0z" p-id="5333" fill="#bfbfbf"></path></svg>