<?xml version="1.0" standalone="no"?><!DOCTYPE svg PUBLIC "-//W3C//DTD SVG 1.1//EN" "http://www.w3.org/Graphics/SVG/1.1/DTD/svg11.dtd"><svg t="1752129148643" class="icon" viewBox="0 0 1024 1024" version="1.1" xmlns="http://www.w3.org/2000/svg" p-id="2372" xmlns:xlink="http://www.w3.org/1999/xlink" width="200" height="200"><path d="M253.360825 1024l-115.279176-58.836014v-53.205773c-64.888522-68.266667-62.917938-94.728797 14.075602-153.424055-23.506254-17.594502-63.762474 2.674364-77.275052-36.315051 47.434777-42.930584 70.378007-101.062818 87.972509-162.010172a326.694708 326.694708 0 0 1 208.037388-226.617182c4.644948-89.380069 86.84646-143.430378 178.478626-112.604811l-35.611272 90.36536c105.144742 7.319313 192.413471 45.041924 256.316701 123.302268 40.537732 15.483162 38.84866-34.766735 69.251959-40.819244l11.964261 58.27299 50.390653-27.306667c28.151203 18.72055-5.207973 31.951615-10.415945 52.220482 14.779381 20.12811 28.995739 40.537732 44.4789 60.243573a142.867354 142.867354 0 0 1 28.995739 114.153128c-12.527285 77.838076-30.262543 154.831615-41.100756 233.091958a1276.938557 1276.938557 0 0 0-5.207972 139.48921h-21.113402l-89.239313-70.378007 9.993677-10.415945-17.735258 36.878076L731.931271 959.956014l-39.411683 23.787766-42.226804-21.113402c-28.151203 14.075601-52.501993 36.03354-86.564949 27.306667l-9.008385-37.863368H332.747216l-26.602886 71.926323z m-9.993677-380.041237l-0.844536 0.985292 126.680412 19.705842 10.838213 10.978969c-29.277251 32.373883-19.846598 74.178419-29.699519 110.493471L384.404674 816.38488l-35.189004 94.869553a412.274364 412.274364 0 0 0 233.514227 2.11134l9.712165-26.602886 12.808797 15.905429-11.823505 50.672165 5.348728 4.644949c16.749966-11.682749 33.218419-24.210034 50.812921-34.62598a84.453608 84.453608 0 0 1 26.039863-5.348728l7.460069 33.922199L731.931271 928.145155l52.924262 14.075601c-1.829828-43.212096-2.955876-80.934708-5.911753-118.516564 0-4.92646-9.852921-9.289897-15.060893-14.075601l-5.630241-23.224742 14.075601-100.922062h18.72055l3.237389-1.266804c-11.964261 106.411546 8.023093 202.266392 87.127972 281.512027 8.726873-48.842337 16.60921-93.321237 24.632302-137.659381 7.460069-40.96 15.060893-81.92 22.520963-122.88 10.556701-48.420069 25.476838-97.262405-10.978969-140.756014L886.762887 602.435739c0-16.468454 1.126048-33.077663 1.126048-49.546117 0-70.378007-53.205773-104.722474-115.982956-76.289759a232.951203 232.951203 0 0 1-32.936907 9.430652c16.046186-32.373883-3.5189-52.924261-25.476838-70.378006a292.209485 292.209485 0 0 0-209.304193-70.378007c-11.401237 0.70378-22.802474 0-40.25622 0l45.182681-104.581718c-40.396976 10.978969-74.037663 14.779381-94.728798 45.464192s14.920137 45.88646 20.831891 69.674227C325.005636 360.194639 232.528935 436.343643 198.606735 548.948454l-70.378006 172.707628 49.123848 3.518901 5.630241 54.191065c32.514639-26.039863 26.039863-61.08811 30.262543-92.898969h17.876014v58.413746l30.966323 6.33402c1.40756-6.615533 2.392852-11.682749 3.659656-16.468453 9.149141-34.625979-19.705842-59.117526-22.380206-91.491409zM205.50378 822.859656l-6.474777 20.83189-25.336082 84.453609c1.548316 8.867629 0 23.224742 5.067216 25.476838 32.373883 16.046186 65.733058 29.277251 104.159451 45.745705 21.113402-65.451546 63.621718-114.434639 69.53347-180.871478C315.152715 802.309278 281.512027 786.966873 247.730584 774.158076c-17.031478-6.756289-36.315052-10.978969-35.048247 19.002061z m121.753952-38.848659l10.556701-90.224605-48.138557-6.193265v78.964124z m-168.907217 96.980893l23.083987-73.474639c-28.151203-10.415945-47.575533-9.289897-56.302406 15.483161s2.674364 42.789828 32.936907 57.991478z" fill="#353947" p-id="2373"></path><path d="M198.606735 548.948454c33.922199-112.604811 126.680412-188.472302 235.907079-192.272715-5.911753-23.787766-41.100756-39.55244-20.83189-69.674227s54.331821-34.485223 94.728798-45.464192l-45.182681 104.581718h40.25622a292.209485 292.209485 0 0 1 209.304193 70.378007c21.957938 17.735258 42.226804 38.285636 25.476838 70.378007l0.985292-0.985293c-30.966323 26.743643-32.796151 59.399038-19.846598 95.151066l25.195327 40.96-40.819244-6.193265-103.174158-14.075601-62.214158-93.039725-31.670104 50.672165c-19.42433-5.630241-26.602887 0.844536-20.691134 20.691134L464.494845 579.210997a165.669828 165.669828 0 0 0-100.077525-17.172234l-10.415945-86.564949L316.560275 506.721649l-44.338144 42.226805z m255.190653-62.917939l-10.556701-10.556701c-17.172234-17.031478-35.048247-15.060893-47.29402 3.378145s-4.785704 36.73732 12.105017 50.249897c20.12811 16.046186 34.907491 9.712165 45.745704-11.541993 14.216357-10.838213 15.201649-21.394914 0-31.81086z" fill="#F5F5F6" p-id="2374"></path><path d="M592.442062 886.762887l-9.712165 26.602886a412.274364 412.274364 0 0 1-233.514227-2.11134l35.189004-94.869553-34.062956-30.544055c9.852921-36.315052 0-78.119588 29.699519-110.493471a198.184467 198.184467 0 0 0 105.426254-94.869553c16.327698 2.392852 26.039863-1.689072 20.691134-20.691134l31.670104-4.926461L600.887423 633.402062c0 7.882337-1.970584 18.01677 1.970584 23.083986 30.966323 38.707904 23.787766 80.934708 14.075601 123.865292-8.586117 36.03354-16.468454 71.363299-24.491546 106.411547zM442.818419 663.523849c0 14.075601-2.81512 23.64701 0 26.884398 20.268866 20.691134 20.83189 45.604948 19.565086 71.926323a96.840137 96.840137 0 0 0 3.237388 31.107079c5.911753 20.409622 12.668041 41.382268 38.426392 44.056633A48.560825 48.560825 0 0 0 557.393814 802.309278a696.601512 696.601512 0 0 0 18.579794-80.371683c6.052509-6.474777 35.470515-2.533608 18.157526-36.596564z" fill="#F5F5F6" p-id="2375"></path><path d="M600.605911 602.013471l103.174158 14.075601 40.819244 5.348729c37.863368 9.993677 22.94323 41.241512 26.46213 65.170034l-14.075601 100.922062-49.827629 78.119588-21.394914 31.529347-10.134433 21.394914a84.453608 84.453608 0 0 0-26.039863 5.348728c-17.594502 10.415945-34.062955 22.94323-50.812921 34.62598v-5.207973h-5.067216l11.823505-50.672165c16.046186-61.932646 32.936907-123.724536 47.716289-185.938694 5.348729-22.661718-25.476838-68.266667-51.938969-82.62378zM927.300619 706.735945c-7.460069 40.96-15.060893 81.92-22.520963 122.88-8.023093 44.338144-15.90543 88.817045-24.632302 137.659381-79.10488-79.386392-98.52921-175.241237-87.127973-281.512027z" fill="#B3DCF8" p-id="2376"></path><path d="M199.029003 843.691546l6.474777-20.83189h45.604949c2.11134-39.270928-20.972646-30.262543-38.426392-30.121787-1.548316-29.981031 18.01677-25.758351 35.048247-18.579793 34.062955 13.231065 67.422131 28.151203 104.722474 44.4789-5.911753 66.436838-48.420069 115.419931-69.53347 180.871478-38.426392-16.186942-71.926323-29.418007-104.159451-45.182681-4.785704-2.252096-3.5189-16.60921-5.067216-25.476838h33.499931l26.321375-70.378007z" fill="#87BC85" p-id="2377"></path><path d="M738.265292 486.030515a232.951203 232.951203 0 0 0 32.936907-9.430652c62.777182-28.151203 116.405223 6.615533 115.982956 76.289759 0 16.468454-0.70378 33.077663-1.126048 49.546117l1.126048-0.985292-12.105018-2.674365-21.53567 16.749966-29.981031 8.304605A86.564948 86.564948 0 0 1 731.931271 564.572371c2.392852-26.462131 4.644948-52.924261 7.037801-79.527148z m113.730859 61.79189l-61.369622-52.501993c-3.941168 35.752027-6.615533 59.821306-10.275189 93.180481z" fill="#F5F5F6" p-id="2378"></path><path d="M198.606735 548.948454h73.615396c-28.151203 42.226804-74.178419 76.852784-59.117526 137.659381-4.22268 31.810859 2.252096 66.859107-30.262543 92.898969l-6.052509-54.472577-49.123849-3.518901z" fill="#AED4EF" p-id="2379"></path><path d="M927.300619 706.735945l-134.281238-21.113402-3.237388 1.266804 6.897045-37.863368 27.025154-7.74158 31.247835-8.867629 29.840275-20.691134 2.392853-10.275189-0.422268 0.985292 30.262543-36.73732c35.752027 43.77512 20.83189 92.617457 10.275189 141.037526zM369.625292 663.946117l-126.680412-19.705842a171.300069 171.300069 0 0 1 16.749965-41.100756c21.817182-29.277251 46.167973-56.302405 69.533471-84.453608 3.237388 9.149141 6.756289 18.157526 9.571409 27.306666q15.623918 49.123849 30.966323 98.52921z" fill="#F5F5F6" p-id="2380"></path><path d="M763.179107 810.473127c5.207973 4.644948 14.075601 9.008385 15.060893 14.075602 2.955876 37.581856 4.081924 75.304467 5.911753 118.516563l-52.924262-14.075601-47.9978 23.787766-7.600825-34.766735c14.075601-1.970584 20.550378-7.882337 10.978969-21.817182 21.394914 11.682749 23.787766-9.993677 33.359175-19.002062z" fill="#AED4EF" p-id="2381"></path><path d="M601.168935 634.105842c26.462131 14.075601 57.287698 59.962062 51.938969 82.62378-14.075601 62.214158-31.670103 124.006048-47.716289 185.938694L592.442062 886.762887c8.023093-35.329759 15.90543-70.378007 24.35079-105.989279 10.134433-42.930584 17.31299-85.157388-14.075601-123.865292-3.5189-4.785704-0.985292-14.920137-1.548316-22.802474zM328.806048 518.404399c-23.365498 28.151203-47.716289 55.457869-69.533471 84.453608a171.300069 171.300069 0 0 0-16.749965 41.100756l0.844536-0.985292-12.386529 43.07134h-17.876014C198.043711 625.660481 243.507904 591.175258 272.222131 548.948454l44.338144-42.226805z" fill="#484F5E" p-id="2382"></path><path d="M327.257732 784.010997l-37.581856-17.453746v-78.964124l48.138557 6.193265z" fill="#D55375" p-id="2383"></path><path d="M823.704192 641.284399l-27.025154 7.74158-6.897045 37.863368h-18.72055c-3.5189-23.928522 11.401237-55.176357-26.46213-65.170034l-25.195327-40.96 12.527285-16.186942a86.564948 86.564948 0 0 0 91.350653 59.258282zM369.625292 663.946117v-19.846598l12.245773-12.949553c8.445361 1.266804 20.409622 6.897045 24.773059 3.237388 20.550378-17.031478 38.989416-36.455808 58.132233-55.176357l20.972646 1.548316A198.184467 198.184467 0 0 1 380.041237 675.628866z" fill="#484F5E" p-id="2384"></path><path d="M199.029003 843.691546l34.485224 14.075602-26.321375 70.378007h-33.499931z" fill="#CAE7AF" p-id="2385"></path><path d="M230.980619 686.326323l12.386529-43.07134c2.674364 31.670103 31.529347 56.302405 22.23945 91.350653-1.266804 4.785704-2.252096 9.852921-3.659656 16.468453l-30.966323-6.33402z" fill="#F5F5F6" p-id="2386"></path><path d="M763.179107 810.473127l-44.056633 67.703643-11.964261-12.527285 50.390653-78.4011z" fill="#484F5E" p-id="2387"></path><path d="M212.682337 792.737869c17.453746 0 40.537732-9.149141 38.426392 30.121787H205.50378z" fill="#CDEAB1" p-id="2388"></path><path d="M598.916838 957.98543l-5.348728-4.644949h5.067216z" fill="#484F5E" p-id="2389"></path><path d="M464.494845 579.210997c-19.142818 18.72055-37.581856 38.14488-58.132233 55.176357-4.363436 3.659656-16.327698-1.970584-24.773059-3.237388l-17.172233-69.111203A165.669828 165.669828 0 0 1 464.494845 579.210997z" fill="#AED4EF" p-id="2390"></path><path d="M364.41732 562.038763l17.172233 69.111203-12.245773 12.949553q-15.342405-49.123849-30.966323-98.52921c-2.81512-9.149141-6.334021-18.157526-9.571409-27.306666l-12.245773-11.541994 37.4411-30.966323z" fill="#353947" p-id="2391"></path><path d="M600.605911 602.013471v31.670103l-62.214158-79.245636-31.670104 4.926461 31.388592-50.390653z" fill="#484F5E" p-id="2392"></path><path d="M453.797388 517.278351c-10.838213 21.254158-25.617595 28.151203-45.745704 11.541993-16.890722-14.075601-24.632302-31.529347-12.105017-50.249897s30.121787-20.409622 47.29402-3.378145c-23.506254 0.985292-34.766735 11.541993-29.136495 39.411684l39.693196 3.096633z" fill="#AED4EF" p-id="2393"></path><path d="M731.931271 564.572371l-12.808797 15.623918c-12.949553-35.752027-11.119725-68.407423 19.846598-95.151066-2.11134 26.602887-4.363436 53.065017-7.037801 79.527148z" fill="#353947" p-id="2394"></path><path d="M506.721649 559.786667c5.348729 19.002062-4.363436 23.083986-20.691134 20.691134-6.193265-19.846598 0.985292-26.321375 20.691134-20.691134z" fill="#484F5E" p-id="2395"></path><path d="M453.797388 485.749003c15.201649 10.415945 14.075601 20.972646 0 31.529348v-31.81086zM443.240687 475.192302l10.556701 10.556701-10.556701-10.556701z" fill="#AED4EF" p-id="2396"></path><path d="M442.818419 663.523849l151.312715 22.098694c17.31299 34.062955-12.105017 30.121787-18.157526 36.596564A696.601512 696.601512 0 0 1 557.393814 802.309278a48.560825 48.560825 0 0 1-52.783505 34.907492c-25.758351-2.674364-32.514639-23.64701-38.426391-44.056633a96.840137 96.840137 0 0 1-3.237389-31.107079c1.266804-26.321375 0-51.235189-19.565086-71.926323-3.378144-2.955876-0.563024-12.386529-0.563024-26.602886z m66.296083 153.987079c41.523024-26.462131 42.226804-60.38433 34.766735-98.52921l-55.317113-10.275189c-0.422268 38.707904-15.201649 75.163711 20.550378 108.804399zM707.158213 865.649485l11.964261 12.527285c-9.571409 9.008385-11.964261 30.684811-33.359175 19.002062z" fill="#353947" p-id="2397"></path><path d="M686.185567 896.756564c9.571409 14.075601 2.955876 19.846598-10.978969 21.817182zM851.996151 547.822405l-71.644811 40.678488c3.659656-33.359175 6.334021-57.428454 10.275189-93.180481z" fill="#353947" p-id="2398"></path><path d="M884.792302 611.725636l-29.840275 20.691134-1.40756-16.890722 21.53567-16.749966z" fill="#484F5E" p-id="2399"></path><path d="M853.544467 615.526048l1.40756 16.890722-31.247835 8.867629v-17.453746zM884.792302 611.725636l-9.712165-12.949554 12.105018 2.674365z" fill="#353947" p-id="2400"></path><path d="M443.522199 474.91079l10.556701 10.556701v31.951616l-39.693196-3.096633c-6.193265-27.869691 5.630241-38.426392 29.136495-39.411684z" fill="#F5F5F6" p-id="2401"></path><path d="M509.114502 817.510928c-35.752027-33.640687-20.972646-70.378007-20.550378-108.804399l55.317113 10.275189c7.882337 38.14488 6.756289 72.067079-34.766735 98.52921z" fill="#E25679" p-id="2402"></path></svg>