<?xml version="1.0" standalone="no"?><!DOCTYPE svg PUBLIC "-//W3C//DTD SVG 1.1//EN" "http://www.w3.org/Graphics/SVG/1.1/DTD/svg11.dtd"><svg t="1752138750757" class="icon" viewBox="0 0 1024 1024" version="1.1" xmlns="http://www.w3.org/2000/svg" p-id="18232" xmlns:xlink="http://www.w3.org/1999/xlink" width="200" height="200"><path d="M510.561077 1004.096691c-107.058487 0-194.157576-87.099089-194.157576-194.157576h107.86532c0 47.58155 38.710706 86.292256 86.292256 86.292256 47.577235 0 86.296571-38.710706 86.29657-86.292256h107.86532c0 107.062802-87.103403 194.157576-194.16189 194.157576zM432.18182 637.125929H309.931581v-179.056432c0-29.788087-24.144573-53.93266-53.93266-53.93266s-53.93266 24.144573-53.93266 53.93266v179.056432h-28.044983c-29.783772 0-53.93266 24.153202-53.93266 53.93266 0 29.783772 24.148888 53.93266 53.93266 53.93266h258.160542c29.783772 0 53.93266-24.148888 53.93266-53.93266s-24.148888-53.93266-53.93266-53.93266zM564.493737 94.054244v-24.299899c0-29.788087-24.153202-53.93266-53.93266-53.93266-29.788087 0-53.93266 24.144573-53.93266 53.93266V94.058559a304.697956 304.697956 0 0 0-89.390148 31.108358c-26.254419 14.061323-36.143511 46.74883-22.082189 73.007564 14.065638 26.258734 46.753144 36.139197 73.003249 22.082188 28.774153-15.407482 59.865253-23.221246 92.401748-23.221246 110.630987 0 200.63381 91.940084 200.63381 204.944108v144.539529c0 29.783772 24.148888 53.93266 53.93266 53.93266s53.93266-24.148888 53.93266-53.93266v-144.539529c0-153.820261-110.104604-281.977205-254.56647-307.925287z" p-id="18233" fill="#cdcdcd"></path><path d="M876.586939 921.890373a53.794592 53.794592 0 0 1-38.136863-15.791482l-720.540337-720.540338c-21.059625-21.059625-21.059625-55.209785 0-76.273725 21.06394-21.06394 55.209785-21.06394 76.273725 0l720.540338 720.540337c21.06394 21.059625 21.06394 55.205471 0 76.273726a53.794592 53.794592 0 0 1-38.136863 15.791482z" p-id="18234" fill="#cdcdcd"></path></svg>